<svg xmlns="http://www.w3.org/2000/svg" viewBox="0 0 48 48">
    <defs>
        <style>.cls-1{fill:#222;}</style>
    </defs>
    <g id="Layer_2" data-name="Layer 2">
        <g id="GitHubLogo">
            <path class="cls-1" d="M24,0a24.32,24.32,0,0,0-5.18,48,.91.91,0,0,1-.31-.68l0-4.52a.86.86,0,0,0-.77-.88,17.15,17.15,0,0,1-7.36-2.87.81.81,0,0,1-.39-.8,3.83,3.83,0,0,0-1-2.42.87.87,0,0,1,1.19-1.25A7.76,7.76,0,0,1,12,36.43c.84,2.54,4.23,2.48,5.77,2.32a.88.88,0,0,0,.78-.88v-1.8a.89.89,0,0,0-.73-.87C5.71,32.81,10,20.11,10.79,18a.91.91,0,0,0,0-.63c-.61-1.87.5-5.39,1-6.8a.88.88,0,0,1,.93-.58,10.09,10.09,0,0,1,4.44,1.95.85.85,0,0,0,.71.13c6.82-1.64,11.57-.58,13.18-.1a.83.83,0,0,0,.9-.27c1.38-1.75,4.83-1.83,4.83-1.83s3.59,4.51,1.41,7.63c-.07.11,0,.25.09.37,1.06,2.2,2.07,5.49,1,10.86-.87,4.43-6.2,6-8.1,6.46a.86.86,0,0,0-.67.86V47a.9.9,0,0,1-.55.81A24.32,24.32,0,0,0,24,0Z" />
        </g>
    </g>
</svg>