<svg xmlns="http://www.w3.org/2000/svg" viewBox="0 0 48 48">
    <defs>
        <style>.cls-1{fill:#6874e8;}</style>
    </defs>
    <g id="Layer_2" data-name="Layer 2">
        <g id="GeagltsLogo">
            <path class="cls-1" d="M19.37,22.12a.64.64,0,0,0-.24.25,9.37,9.37,0,0,0-.65,5.23.68.68,0,0,0,.07.2c1,1.76,1.74.35,1.91,0a.83.83,0,0,0,0-.15,9,9,0,0,0-.29-5.24A.59.59,0,0,0,19.37,22.12Z" />
            <path class="cls-1" d="M27,22.12a.62.62,0,0,0-.23.25,9.37,9.37,0,0,0-.65,5.23.68.68,0,0,0,.07.2c1,1.76,1.74.35,1.9,0a.44.44,0,0,0,.05-.15,9,9,0,0,0-.29-5.24A.6.6,0,0,0,27,22.12Z" />
            <path class="cls-1" d="M24,0A24,24,0,1,0,48,24,24,24,0,0,0,24,0ZM37.79,29.47a1.57,1.57,0,0,1-.23.69C30.67,41.11,24.5,40,24.1,39.93h-.05c-8.33-.79-12.19-8.67-12.92-10.33a1.66,1.66,0,0,1-.14-.66,9.89,9.89,0,0,1,1.34-5.24.6.6,0,0,0,.09-.37c-.54-8.62,2.43-12.69,3.36-13.74a.63.63,0,0,1,.74-.15c1.75.83,3.82,5.32,4.47,6.84a.65.65,0,0,0,.74.36,11.44,11.44,0,0,1,5.32.1h0a.62.62,0,0,0,.76-.45,13.28,13.28,0,0,1,4.44-6.63.64.64,0,0,1,.86.05c3.69,4,3.41,12.37,3.35,13.66a.6.6,0,0,0,.07.32A10.64,10.64,0,0,1,37.79,29.47Z" />
        </g>
    </g>
</svg>