<svg xmlns="http://www.w3.org/2000/svg" viewBox="0 0 45 45">
    <defs>
        <style>.cls-1{fill:#0a66c2;}</style>
    </defs>
    <g id="Layer_2" data-name="Layer 2">
        <g id="LinkedinLogo">
            <path class="cls-1" d="M22.5,0A22.5,22.5,0,1,0,45,22.5,22.5,22.5,0,0,0,22.5,0ZM15.91,29.71a2.44,2.44,0,0,1-.53,1.7A1.79,1.79,0,0,1,14,32a1.69,1.69,0,0,1-1.33-.58,2.49,2.49,0,0,1-.51-1.69V19a2.4,2.4,0,0,1,.51-1.67A1.74,1.74,0,0,1,14,16.81a1.82,1.82,0,0,1,1.36.56,2.18,2.18,0,0,1,.53,1.56Zm-.55-15.12a1.88,1.88,0,0,1-1.3.48,2,2,0,0,1-1.33-.48,1.67,1.67,0,0,1-.55-1.35,1.66,1.66,0,0,1,.57-1.3,1.84,1.84,0,0,1,1.31-.52,2,2,0,0,1,1.29.47,1.66,1.66,0,0,1,.56,1.35A1.71,1.71,0,0,1,15.36,14.59ZM33,29.71a2.49,2.49,0,0,1-.51,1.7,1.86,1.86,0,0,1-2.69,0,2.44,2.44,0,0,1-.52-1.69V23.49a6.23,6.23,0,0,0-.51-2.82,2.1,2.1,0,0,0-2.05-1,3,3,0,0,0-1.81.6,3.46,3.46,0,0,0-1.21,1.63A11.89,11.89,0,0,0,23.39,25v4.67a2.45,2.45,0,0,1-.53,1.71A1.79,1.79,0,0,1,21.5,32a1.67,1.67,0,0,1-1.32-.58,2.44,2.44,0,0,1-.52-1.69V18.93a2.34,2.34,0,0,1,.46-1.59,1.58,1.58,0,0,1,1.27-.53,1.76,1.76,0,0,1,.89.23,1.68,1.68,0,0,1,.64.7,2.45,2.45,0,0,1,.24,1.13v.45a6.43,6.43,0,0,1,2.15-1.9A5.68,5.68,0,0,1,28,16.81a5.31,5.31,0,0,1,2.63.64,4.08,4.08,0,0,1,1.74,1.82,4.22,4.22,0,0,1,.48,1.48,15.76,15.76,0,0,1,.11,2Z" />
        </g>
    </g>
</svg>