<svg xmlns="http://www.w3.org/2000/svg" viewBox="0 0 45 45">
    <defs>
        <style>.cls-1{fill:#1a8cd8;}</style>
    </defs>
    <g id="Layer_2" data-name="Layer 2">
        <g id="TwitterLogo">
            <path class="cls-1" d="M22.5,0A22.5,22.5,0,1,0,45,22.5,22.5,22.5,0,0,0,22.5,0ZM34.44,16.43l0,0C31.94,41.94,8,33.37,7.67,32.11c0,0,0-.06.06-.06a13.39,13.39,0,0,0,8.71-2.84.06.06,0,0,0,0-.1c-3.3.51-4.9-3.09-5.13-3.67a.05.05,0,0,1,.05-.08h2.29a6.5,6.5,0,0,1-4.46-5.88.06.06,0,0,1,.08-.05c3,.51,2.15,0,2.15,0-3.44-2.76-1.78-6.79-1.52-7.36A.06.06,0,0,1,10,12c6.32,6.29,11.3,5.95,11.8,5.9a.07.07,0,0,0,0-.05c.87-6.37,3.78-7.39,6.68-7.39,2.23,0,4.29,2.13,4.45,2.22h0c.64,0,2.95-1.49,3.48-1.38.06,0,.11,0,.07.09l-2,2.65s-.15.14-.1.13l2.84-.71c.05,0,.09,0,.07.08A10.66,10.66,0,0,1,34.44,16.43Z" />
        </g>
    </g>
</svg>